#N canvas 250 36 1165 642 10;
#X msg 111 30 devicename /dev/tty.usbserial-191;
#X obj 113 211 comport 1 115200;
#X obj 113 241 select 13 10 33;
#X msg 171 54 close;
#X msg 111 53 open \$1;
#X msg 47 -12 devices;
#X obj 112 -11 hradio 15 1 0 12 empty empty empty 0 -6 0 10 -262144
-1 -1 2;
#X floatatom 127 4 5 0 0 0 - - -;
#X text 115 -31 0;
#X text 131 -31 1;
#X text 147 -31 2;
#X text 161 -31 3;
#X text 175 -31 4;
#X text 191 -31 5;
#X text 206 -31 6;
#X floatatom 726 169 5 0 0 0 - - -;
#X floatatom 805 174 5 0 0 0 - - -;
#X floatatom 765 171 5 0 0 0 - - -;
#X obj 201 304 list prepend;
#X obj 200 272 makefilename %c;
#X obj 294 305 t l;
#X obj 113 273 bng 15 50 10 0 empty empty empty 0 -6 0 10 -262144 -1
-1;
#X obj 113 338 list append;
#X obj 112 441 list trim;
#X symbolatom 114 395 55 0 0 0 - - -;
#X obj 113 368 list2symbol;
#X symbolatom 200 354 10 0 0 0 - - -;
#X obj 111 416 symbol2list;
#X msg 200 331 symbol;
#X text 112 -32 comment;
#X text 220 -31 7;
#X text 234 -31 8;
#X text 249 -31 9;
#X text 261 -31 10;
#X text 280 -31 11;
#X obj 110 467 s recv;
#X obj 729 62 r recv;
#X obj 126 174 ascseq;
#X obj 126 146 list2symbol;
#X obj 125 118 list append;
#X obj 125 91 r send;
#X floatatom 853 419 5 0 0 0 - - -;
#X floatatom 891 419 5 0 0 0 - - -;
#X floatatom 870 399 5 0 0 0 - - -;
#X obj 838 555 s send;
#X obj 839 518 list trim;
#X msg 933 420 symbol !;
#X obj 837 286 bng 15 250 50 0 empty empty empty 0 -6 0 10 -262144
-1 -1;
#X text 21 -13 GET;
#X text 212 241 <-- end character end line select one!;
#X text 301 271 // change int to ascii;
#X text 325 305 // stores string;
#X text 1 338 // send string out;
#X text 272 352 // remove unwanted spaces;
#X text 453 394 // monitor what comes in;
#X text 190 419 // make list (message) out of it;
#X text 188 441 // remove beginning "list";
#X text 186 466 // send it to whoever needs it;
#X text 323 -13 // select a device by number;
#X text 322 30 // or open a known device by name;
#X text 223 211 // datarate;
#X msg 837 365 Z;
#X obj 838 318 t b b b b b;
#X obj 835 474 pack s i i i s;
#X obj 942 283 hsl 128 15 0 255 0 0 empty empty empty -2 -8 0 10 -258113
-1 -1 7819 1;
#X obj 939 306 int;
#X obj 973 304 hsl 128 15 0 255 0 0 empty empty empty -2 -8 0 10 -4034
-1 -1 6524 1;
#X obj 970 327 int;
#X obj 1010 330 hsl 128 15 0 255 0 0 empty empty empty -2 -8 0 10 -4160
-1 -1 6475 1;
#X obj 1007 353 int;
#X obj 837 260 metro 33;
#X obj 839 232 tgl 15 0 empty empty empty 17 7 0 10 -262144 -1 -1 1
1;
#X obj 844 127 s send;
#X msg 844 104 Y !;
#X obj 729 95 route a;
#X obj 728 129 unpack f f f;
#X text 878 103 This message polls the accelerometer;
#X text 873 231 This toggle will begin sending the Change in Color
;
#X obj 844 79 metro 33;
#X obj 846 51 tgl 15 0 empty empty empty 17 7 0 10 -262144 -1 -1 1
1;
#X obj 139 303 loadbang;
#N canvas 721 151 450 300 autocalibrate 0;
#N canvas 335 208 450 300 trough 0;
#X obj 120 22 inlet;
#X obj 132 164 outlet;
#X obj 131 87 moses 10;
#X floatatom 131 66 4 0 0 0 - - -;
#X floatatom 131 112 4 0 0 0 - - -;
#X floatatom 185 65 4 0 0 0 - - -;
#X floatatom 226 64 5 0 0 0 - - -;
#X obj 223 18 inlet;
#X obj 261 33 bng 15 250 50 0 empty empty empty 17 7 0 10 -262144 -1
-1;
#X connect 0 0 3 0;
#X connect 2 0 4 0;
#X connect 2 0 5 0;
#X connect 3 0 2 0;
#X connect 4 0 1 0;
#X connect 5 0 2 1;
#X connect 6 0 2 1;
#X connect 7 0 8 0;
#X connect 8 0 6 0;
#X restore 80 89 pd trough;
#N canvas 0 22 450 300 peak 0;
#X obj 130 32 inlet;
#X obj 187 172 outlet;
#X floatatom 141 76 4 0 0 0 - - -;
#X floatatom 183 65 4 0 0 0 - - -;
#X obj 141 97 moses 0;
#X floatatom 186 135 5 0 0 0 - - -;
#X floatatom 236 74 5 0 0 0 - - -;
#X obj 233 28 inlet;
#X obj 271 43 bng 15 250 50 0 empty empty empty 17 7 0 10 -262144 -1
-1;
#X connect 0 0 2 0;
#X connect 2 0 4 0;
#X connect 3 0 4 1;
#X connect 4 1 3 0;
#X connect 4 1 5 0;
#X connect 5 0 1 0;
#X connect 6 0 4 1;
#X connect 7 0 8 0;
#X connect 8 0 6 0;
#X restore 147 89 pd peak;
#X obj 56 129 maxlib/scale 0 1 0 1;
#X obj 83 14 inlet;
#X obj 134 16 inlet;
#X obj 56 179 outlet;
#X connect 0 0 2 1;
#X connect 1 0 2 2;
#X connect 2 0 5 0;
#X connect 3 0 0 0;
#X connect 3 0 1 0;
#X connect 3 0 2 0;
#X connect 4 0 1 1;
#X connect 4 0 0 1;
#X restore 552 208 pd autocalibrate;
#X obj 647 186 bng 15 250 50 0 empty empty empty 17 7 0 10 -262144
-1 -1;
#X obj 552 231 * 255;
#X obj 553 254 int;
#X msg 554 281 \$1 10;
#X obj 554 309 line 10;
#N canvas 721 151 450 300 autocalibrate 0;
#N canvas 335 208 450 300 trough 0;
#X obj 120 22 inlet;
#X obj 132 164 outlet;
#X obj 131 87 moses 10;
#X floatatom 131 66 4 0 0 0 - - -;
#X floatatom 131 112 4 0 0 0 - - -;
#X floatatom 185 65 4 0 0 0 - - -;
#X floatatom 226 64 5 0 0 0 - - -;
#X obj 223 18 inlet;
#X obj 261 33 bng 15 250 50 0 empty empty empty 17 7 0 10 -262144 -1
-1;
#X connect 0 0 3 0;
#X connect 2 0 4 0;
#X connect 2 0 5 0;
#X connect 3 0 2 0;
#X connect 4 0 1 0;
#X connect 5 0 2 1;
#X connect 6 0 2 1;
#X connect 7 0 8 0;
#X connect 8 0 6 0;
#X restore 80 89 pd trough;
#N canvas 0 22 450 300 peak 0;
#X obj 130 32 inlet;
#X obj 187 172 outlet;
#X floatatom 141 76 4 0 0 0 - - -;
#X floatatom 183 65 4 0 0 0 - - -;
#X obj 141 97 moses 0;
#X floatatom 186 135 5 0 0 0 - - -;
#X floatatom 236 74 5 0 0 0 - - -;
#X obj 233 28 inlet;
#X obj 271 43 bng 15 250 50 0 empty empty empty 17 7 0 10 -262144 -1
-1;
#X connect 0 0 2 0;
#X connect 2 0 4 0;
#X connect 3 0 4 1;
#X connect 4 1 3 0;
#X connect 4 1 5 0;
#X connect 5 0 1 0;
#X connect 6 0 4 1;
#X connect 7 0 8 0;
#X connect 8 0 6 0;
#X restore 147 89 pd peak;
#X obj 56 129 maxlib/scale 0 1 0 1;
#X obj 83 14 inlet;
#X obj 134 16 inlet;
#X obj 56 179 outlet;
#X connect 0 0 2 1;
#X connect 1 0 2 2;
#X connect 2 0 5 0;
#X connect 3 0 0 0;
#X connect 3 0 1 0;
#X connect 3 0 2 0;
#X connect 4 0 1 1;
#X connect 4 0 0 1;
#X restore 623 245 pd autocalibrate;
#X obj 718 223 bng 15 250 50 0 empty empty empty 17 7 0 10 -262144
-1 -1;
#X obj 623 268 * 255;
#X obj 624 291 int;
#X msg 625 318 \$1 10;
#X obj 625 346 line 10;
#N canvas 721 151 450 300 autocalibrate 0;
#N canvas 335 208 450 300 trough 0;
#X obj 120 22 inlet;
#X obj 132 164 outlet;
#X obj 131 87 moses 10;
#X floatatom 131 66 4 0 0 0 - - -;
#X floatatom 131 112 4 0 0 0 - - -;
#X floatatom 185 65 4 0 0 0 - - -;
#X floatatom 226 64 5 0 0 0 - - -;
#X obj 223 18 inlet;
#X obj 261 33 bng 15 250 50 0 empty empty empty 17 7 0 10 -262144 -1
-1;
#X connect 0 0 3 0;
#X connect 2 0 4 0;
#X connect 2 0 5 0;
#X connect 3 0 2 0;
#X connect 4 0 1 0;
#X connect 5 0 2 1;
#X connect 6 0 2 1;
#X connect 7 0 8 0;
#X connect 8 0 6 0;
#X restore 80 89 pd trough;
#N canvas 0 22 450 300 peak 0;
#X obj 130 32 inlet;
#X obj 187 172 outlet;
#X floatatom 141 76 4 0 0 0 - - -;
#X floatatom 183 65 4 0 0 0 - - -;
#X obj 141 97 moses 0;
#X floatatom 186 135 5 0 0 0 - - -;
#X floatatom 236 74 5 0 0 0 - - -;
#X obj 233 28 inlet;
#X obj 271 43 bng 15 250 50 0 empty empty empty 17 7 0 10 -262144 -1
-1;
#X connect 0 0 2 0;
#X connect 2 0 4 0;
#X connect 3 0 4 1;
#X connect 4 1 3 0;
#X connect 4 1 5 0;
#X connect 5 0 1 0;
#X connect 6 0 4 1;
#X connect 7 0 8 0;
#X connect 8 0 6 0;
#X restore 147 89 pd peak;
#X obj 56 129 maxlib/scale 0 1 0 1;
#X obj 83 14 inlet;
#X obj 134 16 inlet;
#X obj 56 179 outlet;
#X connect 0 0 2 1;
#X connect 1 0 2 2;
#X connect 2 0 5 0;
#X connect 3 0 0 0;
#X connect 3 0 1 0;
#X connect 3 0 2 0;
#X connect 4 0 1 1;
#X connect 4 0 0 1;
#X restore 702 277 pd autocalibrate;
#X obj 797 255 bng 15 250 50 0 empty empty empty 17 7 0 10 -262144
-1 -1;
#X obj 702 300 * 255;
#X obj 703 323 int;
#X msg 704 350 \$1 10;
#X obj 704 378 line 10;
#X connect 0 0 1 0;
#X connect 1 0 2 0;
#X connect 2 0 21 0;
#X connect 2 3 19 0;
#X connect 3 0 1 0;
#X connect 4 0 1 0;
#X connect 5 0 1 0;
#X connect 6 0 4 0;
#X connect 6 0 7 0;
#X connect 15 0 81 0;
#X connect 16 0 93 0;
#X connect 17 0 87 0;
#X connect 18 0 20 0;
#X connect 18 0 22 1;
#X connect 19 0 18 0;
#X connect 20 0 18 1;
#X connect 21 0 18 1;
#X connect 21 0 22 0;
#X connect 22 0 25 0;
#X connect 23 0 35 0;
#X connect 24 0 27 0;
#X connect 25 0 24 0;
#X connect 26 0 25 1;
#X connect 27 0 23 0;
#X connect 28 0 26 0;
#X connect 36 0 74 0;
#X connect 37 0 1 0;
#X connect 38 0 37 0;
#X connect 39 0 38 0;
#X connect 40 0 39 0;
#X connect 41 0 63 1;
#X connect 42 0 63 3;
#X connect 43 0 63 2;
#X connect 45 0 44 0;
#X connect 46 0 63 4;
#X connect 47 0 62 0;
#X connect 61 0 63 0;
#X connect 62 0 61 0;
#X connect 62 1 41 0;
#X connect 62 2 43 0;
#X connect 62 3 42 0;
#X connect 62 4 46 0;
#X connect 63 0 45 0;
#X connect 64 0 65 0;
#X connect 65 0 41 0;
#X connect 66 0 67 0;
#X connect 67 0 43 0;
#X connect 68 0 69 0;
#X connect 69 0 42 0;
#X connect 70 0 47 0;
#X connect 71 0 70 0;
#X connect 73 0 72 0;
#X connect 74 0 75 0;
#X connect 75 0 15 0;
#X connect 75 1 17 0;
#X connect 75 2 16 0;
#X connect 78 0 73 0;
#X connect 79 0 78 0;
#X connect 80 0 28 0;
#X connect 81 0 83 0;
#X connect 82 0 81 1;
#X connect 83 0 84 0;
#X connect 84 0 85 0;
#X connect 85 0 86 0;
#X connect 86 0 64 0;
#X connect 87 0 89 0;
#X connect 88 0 87 1;
#X connect 89 0 90 0;
#X connect 90 0 91 0;
#X connect 91 0 92 0;
#X connect 92 0 66 0;
#X connect 93 0 95 0;
#X connect 94 0 93 1;
#X connect 95 0 96 0;
#X connect 96 0 97 0;
#X connect 97 0 98 0;
#X connect 98 0 68 0;
