#N canvas 648 22 674 770 10;
#X obj -478 88 comport 2 57600;
#X obj -479 121 select 13 10 33;
#X obj -391 184 list prepend;
#X obj -392 152 makefilename %c;
#X obj -298 185 t l;
#X obj -479 153 bng 15 50 10 0 empty empty empty 0 -6 0 10 -262144
-1 -1;
#X obj -479 218 list append;
#X obj -477 327 list trim;
#X symbolatom -478 275 55 0 0 0 - - -;
#X obj -479 248 list2symbol;
#X symbolatom -392 234 10 0 0 0 - - -;
#X obj -478 302 symbol2list;
#X msg -392 211 symbol;
#X text -380 121 <-- end character end line select one!;
#X text -291 151 // change int to ascii;
#X text -267 185 // stores string;
#X text -591 218 // send string out;
#X text -320 232 // remove unwanted spaces;
#X text -139 274 // monitor what comes in;
#X text -399 305 // make list (message) out of it;
#X text -401 327 // remove beginning "list";
#X text -369 91 // datarate;
#X obj -477 379 unpack 0 0 0;
#X msg -403 33 close;
#X msg -477 34 open 2;
#X obj -553 178 loadbang;
#X obj -477 455 s accX;
#X obj -360 460 s accY;
#X obj -232 463 s accZ;
#N canvas 101 143 450 300 autocalibrate 0;
#N canvas 335 208 450 300 trough 0;
#X obj 120 22 inlet;
#X obj 132 164 outlet;
#X obj 131 87 moses 10;
#X floatatom 131 66 4 0 0 0 - - -;
#X floatatom 131 112 4 0 0 0 - - -;
#X floatatom 185 65 4 0 0 0 - - -;
#X floatatom 226 64 5 0 0 0 - - -;
#X obj 223 18 inlet;
#X obj 261 33 bng 15 250 50 0 empty empty empty 17 7 0 10 -262144 -1
-1;
#X connect 0 0 3 0;
#X connect 2 0 4 0;
#X connect 2 0 5 0;
#X connect 3 0 2 0;
#X connect 4 0 1 0;
#X connect 5 0 2 1;
#X connect 6 0 2 1;
#X connect 7 0 8 0;
#X connect 8 0 6 0;
#X restore 80 89 pd trough;
#N canvas 0 22 450 300 peak 0;
#X obj 130 32 inlet;
#X obj 187 172 outlet;
#X floatatom 141 76 4 0 0 0 - - -;
#X floatatom 183 65 4 0 0 0 - - -;
#X obj 141 97 moses 0;
#X floatatom 186 135 5 0 0 0 - - -;
#X floatatom 236 74 5 0 0 0 - - -;
#X obj 233 28 inlet;
#X obj 271 43 bng 15 250 50 0 empty empty empty 17 7 0 10 -262144 -1
-1;
#X connect 0 0 2 0;
#X connect 2 0 4 0;
#X connect 3 0 4 1;
#X connect 4 1 3 0;
#X connect 4 1 5 0;
#X connect 5 0 1 0;
#X connect 6 0 4 1;
#X connect 7 0 8 0;
#X connect 8 0 6 0;
#X restore 147 89 pd peak;
#X obj 56 129 maxlib/scale 0 1 0 1;
#X obj 83 14 inlet;
#X obj 134 16 inlet;
#X obj 56 179 outlet;
#X connect 0 0 2 1;
#X connect 1 0 2 2;
#X connect 2 0 5 0;
#X connect 3 0 0 0;
#X connect 3 0 1 0;
#X connect 3 0 2 0;
#X connect 4 0 1 1;
#X connect 4 0 0 1;
#X restore -477 403 pd autocalibrate;
#X obj -382 381 bng 15 250 50 0 empty empty empty 17 7 0 10 -262144
-1 -1;
#X floatatom -477 433 5 0 0 0 - - -;
#N canvas 101 143 450 300 autocalibrate 0;
#N canvas 335 208 450 300 trough 0;
#X obj 120 22 inlet;
#X obj 132 164 outlet;
#X obj 131 87 moses 10;
#X floatatom 131 66 4 0 0 0 - - -;
#X floatatom 131 112 4 0 0 0 - - -;
#X floatatom 185 65 4 0 0 0 - - -;
#X floatatom 226 64 5 0 0 0 - - -;
#X obj 223 18 inlet;
#X obj 261 33 bng 15 250 50 0 empty empty empty 17 7 0 10 -262144 -1
-1;
#X connect 0 0 3 0;
#X connect 2 0 4 0;
#X connect 2 0 5 0;
#X connect 3 0 2 0;
#X connect 4 0 1 0;
#X connect 5 0 2 1;
#X connect 6 0 2 1;
#X connect 7 0 8 0;
#X connect 8 0 6 0;
#X restore 80 89 pd trough;
#N canvas 0 22 450 300 peak 0;
#X obj 130 32 inlet;
#X obj 187 172 outlet;
#X floatatom 141 76 4 0 0 0 - - -;
#X floatatom 183 65 4 0 0 0 - - -;
#X obj 141 97 moses 0;
#X floatatom 186 135 5 0 0 0 - - -;
#X floatatom 236 74 5 0 0 0 - - -;
#X obj 233 28 inlet;
#X obj 271 43 bng 15 250 50 0 empty empty empty 17 7 0 10 -262144 -1
-1;
#X connect 0 0 2 0;
#X connect 2 0 4 0;
#X connect 3 0 4 1;
#X connect 4 1 3 0;
#X connect 4 1 5 0;
#X connect 5 0 1 0;
#X connect 6 0 4 1;
#X connect 7 0 8 0;
#X connect 8 0 6 0;
#X restore 147 89 pd peak;
#X obj 56 129 maxlib/scale 0 1 0 1;
#X obj 83 14 inlet;
#X obj 134 16 inlet;
#X obj 56 179 outlet;
#X connect 0 0 2 1;
#X connect 1 0 2 2;
#X connect 2 0 5 0;
#X connect 3 0 0 0;
#X connect 3 0 1 0;
#X connect 3 0 2 0;
#X connect 4 0 1 1;
#X connect 4 0 0 1;
#X restore -360 405 pd autocalibrate;
#X obj -265 383 bng 15 250 50 0 empty empty empty 17 7 0 10 -262144
-1 -1;
#X floatatom -360 435 5 0 0 0 - - -;
#N canvas 101 143 450 300 autocalibrate 0;
#N canvas 335 208 450 300 trough 0;
#X obj 120 22 inlet;
#X obj 132 164 outlet;
#X obj 131 87 moses 10;
#X floatatom 131 66 4 0 0 0 - - -;
#X floatatom 131 112 4 0 0 0 - - -;
#X floatatom 185 65 4 0 0 0 - - -;
#X floatatom 226 64 5 0 0 0 - - -;
#X obj 223 18 inlet;
#X obj 261 33 bng 15 250 50 0 empty empty empty 17 7 0 10 -262144 -1
-1;
#X connect 0 0 3 0;
#X connect 2 0 4 0;
#X connect 2 0 5 0;
#X connect 3 0 2 0;
#X connect 4 0 1 0;
#X connect 5 0 2 1;
#X connect 6 0 2 1;
#X connect 7 0 8 0;
#X connect 8 0 6 0;
#X restore 80 89 pd trough;
#N canvas 0 22 450 300 peak 0;
#X obj 130 32 inlet;
#X obj 187 172 outlet;
#X floatatom 141 76 4 0 0 0 - - -;
#X floatatom 183 65 4 0 0 0 - - -;
#X obj 141 97 moses 0;
#X floatatom 186 135 5 0 0 0 - - -;
#X floatatom 236 74 5 0 0 0 - - -;
#X obj 233 28 inlet;
#X obj 271 43 bng 15 250 50 0 empty empty empty 17 7 0 10 -262144 -1
-1;
#X connect 0 0 2 0;
#X connect 2 0 4 0;
#X connect 3 0 4 1;
#X connect 4 1 3 0;
#X connect 4 1 5 0;
#X connect 5 0 1 0;
#X connect 6 0 4 1;
#X connect 7 0 8 0;
#X connect 8 0 6 0;
#X restore 147 89 pd peak;
#X obj 56 129 maxlib/scale 0 1 0 1;
#X obj 83 14 inlet;
#X obj 134 16 inlet;
#X obj 56 179 outlet;
#X connect 0 0 2 1;
#X connect 1 0 2 2;
#X connect 2 0 5 0;
#X connect 3 0 0 0;
#X connect 3 0 1 0;
#X connect 3 0 2 0;
#X connect 4 0 1 1;
#X connect 4 0 0 1;
#X restore -232 407 pd autocalibrate;
#X obj -137 385 bng 15 250 50 0 empty empty empty 17 7 0 10 -262144
-1 -1;
#X floatatom -232 437 5 0 0 0 - - -;
#X obj -477 355 route b;
#X obj -214 76 print;
#X obj -104 168 spell;
#X obj -86 501 expr;
#X msg -266 3 cffffff;
#X obj -99 137 sprintf %s%x%x%x;
#X floatatom -87 78 5 0 0 0 - - -;
#X floatatom -44 79 5 0 0 0 - - -;
#X floatatom 0 82 5 0 0 0 - - -;
#X msg -141 39 c;
#X obj -104 -30 r accX;
#X obj -51 -30 r accY;
#X obj 1 -29 r accZ;
#X obj -104 -8 * 256;
#X obj -52 -3 * 256;
#X obj -183 0 metro 50;
#X obj -183 -32 tgl 15 0 empty empty empty 17 7 0 10 -262144 -1 -1
1 1;
#X msg -105 12 \$1 10;
#X obj -91 47 line 100;
#X msg -37 21 \$1 10;
#X obj -23 56 line 100;
#X obj 17 2 * 256;
#X msg 32 26 \$1 10;
#X obj 46 61 line 100;
#X connect 0 0 1 0;
#X connect 1 0 5 0;
#X connect 1 3 3 0;
#X connect 2 0 4 0;
#X connect 2 0 6 1;
#X connect 3 0 2 0;
#X connect 4 0 2 1;
#X connect 5 0 2 1;
#X connect 5 0 6 0;
#X connect 6 0 9 0;
#X connect 7 0 38 0;
#X connect 8 0 11 0;
#X connect 9 0 8 0;
#X connect 10 0 9 1;
#X connect 11 0 7 0;
#X connect 12 0 10 0;
#X connect 22 0 29 0;
#X connect 22 1 32 0;
#X connect 22 2 35 0;
#X connect 23 0 0 0;
#X connect 24 0 0 0;
#X connect 25 0 12 0;
#X connect 29 0 31 0;
#X connect 30 0 29 1;
#X connect 31 0 26 0;
#X connect 32 0 34 0;
#X connect 33 0 32 1;
#X connect 34 0 27 0;
#X connect 35 0 37 0;
#X connect 36 0 35 1;
#X connect 37 0 28 0;
#X connect 38 0 22 0;
#X connect 40 0 0 0;
#X connect 42 0 40 0;
#X connect 43 0 40 0;
#X connect 44 0 43 1;
#X connect 45 0 43 2;
#X connect 46 0 43 3;
#X connect 47 0 43 0;
#X connect 48 0 51 0;
#X connect 49 0 52 0;
#X connect 50 0 59 0;
#X connect 51 0 55 0;
#X connect 52 0 57 0;
#X connect 53 0 47 0;
#X connect 54 0 53 0;
#X connect 55 0 56 0;
#X connect 56 0 44 0;
#X connect 57 0 58 0;
#X connect 58 0 45 0;
#X connect 59 0 60 0;
#X connect 60 0 61 0;
#X connect 61 0 46 0;
